HIERARCHY
ROOT joint_Root
{
	OFFSET 0.0 0.0 0.0
	CHANNELS 6 Xposition Yposition Zposition Zrotation Xrotation Yrotation 
	JOINT Hips
	{
		OFFSET -0.726466 93.3139 -2.00062
		CHANNELS 6 Xposition Yposition Zposition Zrotation Xrotation Yrotation 
		JOINT Spine
		{
			OFFSET 15.7357 0.0 0.0
			CHANNELS 6 Xposition Yposition Zposition Zrotation Xrotation Yrotation 
			JOINT Chest
			{
				OFFSET 8.98455 -0.406207 0.0
				CHANNELS 6 Xposition Yposition Zposition Zrotation Xrotation Yrotation 
				JOINT Neck
				{
					OFFSET 16.3773 0.0 0.0
					CHANNELS 6 Xposition Yposition Zposition Zrotation Xrotation Yrotation 
					JOINT Head
					{
						OFFSET 6.45672 0.0 0.0
						CHANNELS 6 Xposition Yposition Zposition Zrotation Xrotation Yrotation 
						End Site
						{
							OFFSET 0.0 0.0 0.0
						}
					}
				}
				JOINT Shoulder_L
				{
					OFFSET 12.9942 -0.242716 4.98039
					CHANNELS 6 Xposition Yposition Zposition Zrotation Xrotation Yrotation 
					JOINT UpperArm_L
					{
						OFFSET 5.34809 0.0 0.0
						CHANNELS 6 Xposition Yposition Zposition Zrotation Xrotation Yrotation 
						JOINT LowerArm_L
						{
							OFFSET 24.3286 1.87007e-05 0.0
							CHANNELS 6 Xposition Yposition Zposition Zrotation Xrotation Yrotation 
							JOINT Hand_L
							{
								OFFSET 22.2916 0.0 0.0
								CHANNELS 6 Xposition Yposition Zposition Zrotation Xrotation Yrotation 
								End Site
								{
									OFFSET 0.0 0.0 0.0
								}
							}
						}
					}
				}
				JOINT Shoulder_R
				{
					OFFSET 12.9945 -0.242716 -4.98039
					CHANNELS 6 Xposition Yposition Zposition Zrotation Xrotation Yrotation 
					JOINT UpperArm_R
					{
						OFFSET -5.34813 0.0 0.0
						CHANNELS 6 Xposition Yposition Zposition Zrotation Xrotation Yrotation 
						JOINT LowerArm_R
						{
							OFFSET -24.3289 0.000322201 0.0
							CHANNELS 6 Xposition Yposition Zposition Zrotation Xrotation Yrotation 
							JOINT Hand_R
							{
								OFFSET -22.2915 -0.000108084 0.0
								CHANNELS 6 Xposition Yposition Zposition Zrotation Xrotation Yrotation 
								End Site
								{
									OFFSET 0.0 0.0 0.0
								}
							}
						}
					}
				}
			}
		}
		JOINT UpperLeg_L
		{
			OFFSET -2.19248 -6.46944 0.0
			CHANNELS 6 Xposition Yposition Zposition Zrotation Xrotation Yrotation 
			JOINT LowerLeg_L
			{
				OFFSET 39.0811 0.0 -1.23785e-05
				CHANNELS 6 Xposition Yposition Zposition Zrotation Xrotation Yrotation 
				JOINT Foot_L
				{
					OFFSET 40.9854 0.0 -1.26872e-05
					CHANNELS 6 Xposition Yposition Zposition Zrotation Xrotation Yrotation 
					JOINT Toes_L
					{
						OFFSET 11.7543 0.0 0.0
						CHANNELS 6 Xposition Yposition Zposition Zrotation Xrotation Yrotation 
						End Site
						{
							OFFSET 0.0 0.0 0.0
						}
					}
				}
			}
		}
		JOINT UpperLeg_R
		{
			OFFSET -2.19251 6.46944 0.0
			CHANNELS 6 Xposition Yposition Zposition Zrotation Xrotation Yrotation 
			JOINT LowerLeg_R
			{
				OFFSET -39.0811 -0.00228153 -0.0401928
				CHANNELS 6 Xposition Yposition Zposition Zrotation Xrotation Yrotation 
				JOINT Foot_R
				{
					OFFSET -40.9854 0.0 0.0
					CHANNELS 6 Xposition Yposition Zposition Zrotation Xrotation Yrotation 
					JOINT Toes_R
					{
						OFFSET -11.7543 0.0 0.0
						CHANNELS 6 Xposition Yposition Zposition Zrotation Xrotation Yrotation 
						End Site
						{
							OFFSET 0.0 0.0 0.0
						}
					}
				}
			}
		}
	}
}
MOTION
Frames:	4
Frame Time:	0.0333333
0.000000 0.000000 0.000000 0.000000 0.000000 -0.000000 -0.350444 88.611500 -65.434700 92.748900 -5.604830 -3.294420 15.735700 0.000005 -0.000001 115.373000 82.560300 -116.155000 8.984550 -0.406207 -0.000000 5.750010 6.373900 -1.883610 16.377300 -0.000001 -0.000001 -0.392092 -1.093420 -0.560509 6.456720 -0.000001 -0.000000 0.614870 -5.921390 -0.708656 12.994200 -0.242716 4.980390 -87.311800 -6.372340 -67.071600 5.348090 -0.000007 -0.000001 -74.015500 42.065800 19.518800 24.328600 0.000019 0.000005 -0.735957 -0.038939 -86.931500 22.291600 -0.000001 0.000005 -1.364100 5.622360 -12.781400 12.994500 -0.242716 -4.980390 89.509500 1.588290 -72.836000 -5.348130 -0.000001 -0.000004 -50.760000 34.206600 -34.624600 -24.328900 0.000322 -0.000009 -3.115050 1.009030 -107.929000 -22.291500 -0.000108 -0.000004 13.124500 5.606460 -11.734300 -2.192480 -6.469440 -0.000000 172.398000 -1.300980 -40.148800 39.081100 -0.000007 -0.000012 -0.246619 0.006509 88.490200 40.985400 -0.000006 -0.000013 12.769900 -14.318100 -57.256400 11.754300 -0.000000 0.000003 -0.007919 -0.087382 -20.135000 -2.192510 6.469440 -0.000001 177.254000 10.317300 -177.790000 -39.081100 -0.002282 -0.040193 0.097510 -0.125627 36.870900 -40.985400 0.000008 0.000006 13.265900 7.212370 -66.767300 -11.754300 -0.000006 -0.000006 -0.158583 -0.571409 -40.794400
0.000000 0.000000 0.000000 0.000000 0.000000 -0.000000 -0.365056 91.770000 -55.678800 92.670100 -5.651400 -4.244870 15.735700 0.000005 -0.000001 121.441000 82.821600 -122.734000 8.984550 -0.406207 -0.000000 4.601150 7.511360 -2.888170 16.377300 -0.000001 -0.000001 0.361170 -1.228120 -0.789316 6.456720 -0.000001 -0.000000 1.393710 -7.538120 0.627233 12.994200 -0.242716 4.980390 -86.609600 -7.692640 -66.127500 5.348090 -0.000007 -0.000001 -74.693100 40.927400 22.861000 24.328600 0.000019 0.000005 -2.171400 0.000042 -89.992800 22.291600 -0.000001 0.000005 -1.113040 5.615670 -12.329000 12.994500 -0.242716 -4.980390 89.853700 0.476318 -72.927300 -5.348130 -0.000001 -0.000004 -54.267000 34.709600 -33.354800 -24.328900 0.000322 -0.000009 -2.873300 1.024350 -109.606000 -22.291500 -0.000108 -0.000004 11.724000 5.595050 -11.041300 -2.192480 -6.469440 -0.000000 172.420000 -0.898346 -38.563100 39.081100 -0.000007 -0.000012 -0.077234 0.032056 67.462600 40.985400 -0.000006 -0.000013 11.585500 -17.057500 -60.301400 11.754300 -0.000000 0.000003 -0.007165 -0.081083 -19.877800 -2.192510 6.469440 -0.000001 174.494000 12.919200 -172.609000 -39.081100 -0.002282 -0.040193 0.066585 -0.109909 29.932300 -40.985400 0.000008 0.000006 9.090450 14.121100 -46.057800 -11.754300 -0.000006 -0.000006 -0.226803 -0.687875 -46.268900
0.000000 0.000000 0.000000 0.000000 0.000000 -0.000000 -0.877393 93.671900 -45.849700 90.091600 -4.948650 -3.811080 15.735700 0.000005 -0.000001 123.615000 82.768700 -124.435000 8.984550 -0.406207 -0.000000 4.371100 8.017960 -1.946370 16.377300 -0.000001 -0.000001 0.643600 -1.412310 -1.358750 6.456720 -0.000001 -0.000000 2.051640 -8.490930 1.149310 12.994200 -0.242716 4.980390 -85.954200 -9.163060 -66.050500 5.348090 -0.000007 -0.000001 -75.886700 38.357500 25.463300 24.328600 0.000019 0.000005 -2.207900 0.094717 -92.458600 22.291600 -0.000001 0.000005 -0.466015 5.614750 -12.266900 12.994500 -0.242716 -4.980390 90.197100 -0.645887 -73.028000 -5.348130 -0.000001 -0.000004 -57.278500 35.940000 -31.846400 -24.328900 0.000322 -0.000009 -2.743510 1.002990 -110.066000 -22.291500 -0.000108 -0.000004 11.158700 5.582630 -10.354100 -2.192480 -6.469440 -0.000000 175.498000 -1.315380 -32.499600 39.081100 -0.000007 -0.000012 0.021948 -0.022882 43.804100 40.985400 -0.000006 -0.000013 9.805080 -11.886400 -63.930200 11.754300 -0.000000 0.000003 -0.006771 -0.077694 -19.739500 -2.192510 6.469440 -0.000001 174.751000 13.433000 -168.496000 -39.081100 -0.002282 -0.040193 0.074311 -0.138283 27.178800 -40.985400 0.000008 0.000006 -1.752550 13.119800 -28.824000 -11.754300 -0.000006 -0.000006 -0.034671 -0.238125 -26.340800
0.000000 0.000000 0.000000 0.000000 0.000000 -0.000000 -1.619750 93.842100 -35.823700 86.731600 -5.254930 -4.020270 15.735700 0.000005 -0.000001 127.421000 82.845800 -127.444000 8.984550 -0.406207 -0.000000 3.634660 8.684370 -0.322429 16.377300 -0.000001 -0.000001 0.228584 -1.356830 -1.731480 6.456720 -0.000001 -0.000000 2.658480 -8.777190 0.687257 12.994200 -0.242716 4.980390 -85.281000 -10.729100 -66.086800 5.348090 -0.000007 -0.000001 -77.591500 35.420700 26.992800 24.328600 0.000019 0.000005 -1.723730 0.110418 -93.664500 22.291600 -0.000001 0.000005 0.284084 5.615320 -12.304800 12.994500 -0.242716 -4.980390 90.596000 -1.960280 -73.085200 -5.348130 -0.000001 -0.000004 -59.568000 38.278700 -29.817900 -24.328900 0.000322 -0.000009 -3.912790 1.378180 -109.376000 -22.291500 -0.000108 -0.000004 12.005600 5.585730 -10.522500 -2.192480 -6.469440 -0.000000 179.185000 -3.431230 -26.752000 39.081100 -0.000007 -0.000012 0.013016 -0.030593 23.047300 40.985400 -0.000006 -0.000013 3.062150 -3.217280 -66.828400 11.754300 -0.000000 0.000003 -0.006882 -0.078656 -19.778700 -2.192510 6.469440 -0.000001 178.272000 10.204100 -168.037000 -39.081100 -0.002282 -0.040193 0.087150 -0.128681 33.090400 -40.985400 0.000008 0.000006 -2.383290 5.515930 -27.553500 -11.754300 -0.000006 -0.000006 -0.025869 -0.197865 -24.670100
